<svg xmlns="http://www.w3.org/2000/svg" width="29.656" height="30.595" viewBox="0 0 29.656 30.595">
  <g id="Group_141915" data-name="Group 141915" transform="translate(-133.449 -55.998)">
    <path id="Path_73724" data-name="Path 73724" d="M142.3,66.7v-5.1l-5.1,5.1Z" transform="translate(-3.497 -5.225)" fill="#e27d3a"/>
    <path id="Path_73725" data-name="Path 73725" d="M135.107,83.406h15.17L146.2,79.326h-8.924a.637.637,0,1,1,0-1.275h8.414a1.479,1.479,0,0,1,.51-1.275,1.636,1.636,0,0,1,1.275-.51.955.955,0,0,1,.637.128l.637-.637a2.234,2.234,0,0,1,.637-.51H137.146a.6.6,0,0,1-.637-.637c0-.51.255-.765.637-.765h14.915a.847.847,0,0,1,.637.51,7.2,7.2,0,0,1,1.53.51l1.657-1.657V57.655A1.687,1.687,0,0,0,154.228,56h-14.15v6.119a.6.6,0,0,1-.637.637h-5.992V81.748a1.607,1.607,0,0,0,1.657,1.657Zm2.04-17.847h14.915a.637.637,0,1,1,0,1.275H137.147a.637.637,0,0,1,0-1.275Zm0,4.207h14.915a.637.637,0,1,1,0,1.275H137.147a.637.637,0,1,1,0-1.275Z" transform="translate(0 0)" fill="#e27d3a"/>
    <path id="Path_73726" data-name="Path 73726" d="M344.019,268.26a3,3,0,0,0-4.207,0,2.907,2.907,0,0,0-.892,2.422l-2.8,2.8a3.231,3.231,0,0,0-4.589,0l-1.53,1.4-.383-.383a.631.631,0,0,0-.892.892l8.031,8.031a.637.637,0,0,0,.765,0,.616.616,0,0,0,0-.892l-.383-.383,1.4-1.4a3.231,3.231,0,0,0,0-4.589l2.932-2.8a3.074,3.074,0,0,0,2.549-5.1Z" transform="translate(-181.759 -196.964)" fill="#e27d3a"/>
  </g>
</svg>
