<svg id="Group_6025" data-name="Group 6025" xmlns="http://www.w3.org/2000/svg" xmlns:xlink="http://www.w3.org/1999/xlink" width="24.143" height="27.739" viewBox="0 0 24.143 27.739">
  <defs>
    <clipPath id="clip-path">
      <rect id="Rectangle_8846" data-name="Rectangle 8846" width="24.143" height="27.739" fill="none"/>
    </clipPath>
  </defs>
  <g id="Group_6024" data-name="Group 6024" clip-path="url(#clip-path)">
    <path id="Path_27641" data-name="Path 27641" d="M23.88,15.17a.262.262,0,0,0,.263-.263v-.818a.281.281,0,0,0-.2-.263c-.672-.175-2.923-.7-4.384-1.081a7.536,7.536,0,0,0-6.9-6.576V3.887c1.228-.292,2.046,1.081,3.42.322a.208.208,0,0,0,.088-.175V1.461a.186.186,0,0,0-.263-.175c-1.286.526-2.075-.731-3.244-.439V.2a.2.2,0,0,0-.2-.2h-.7a.2.2,0,0,0-.2.2V6.167a7.544,7.544,0,0,0-6.956,6.606C3.1,13.124.877,13.679.2,13.854a.248.248,0,0,0-.2.234v.818a.262.262,0,0,0,.263.263H1.929V26.277H.292A.293.293,0,0,0,0,26.569v.877a.293.293,0,0,0,.292.292H23.851a.293.293,0,0,0,.292-.292v-.877a.293.293,0,0,0-.292-.292H22.214V15.17Zm-18.969,0H5.963a.387.387,0,0,1,.38.38V19a.387.387,0,0,1-.38.38H4.91A.387.387,0,0,1,4.53,19v-3.42a.394.394,0,0,1,.38-.409ZM7.366,24.23H5.524a.387.387,0,0,1-.38-.38V22.33a.387.387,0,0,1,.38-.38H7.366a.387.387,0,0,1,.38.38v1.491A.361.361,0,0,1,7.366,24.23ZM9.324,15.17h1.052a.387.387,0,0,1,.38.38V19a.387.387,0,0,1-.38.38H9.324a.387.387,0,0,1-.38-.38v-3.42a.394.394,0,0,1,.38-.409Zm4.063,11.136h-2.6V22.331a.387.387,0,0,1,.38-.38h1.841a.387.387,0,0,1,.38.38Zm1.432-6.9H13.767a.387.387,0,0,1-.38-.38V15.579a.387.387,0,0,1,.38-.38h1.052a.387.387,0,0,1,.38.38v3.449a.387.387,0,0,1-.38.38m3.77,4.823H16.748a.387.387,0,0,1-.38-.38V22.33a.387.387,0,0,1,.38-.38h1.841a.387.387,0,0,1,.38.38v1.491A.361.361,0,0,1,18.589,24.23Zm.643-4.823H18.18a.387.387,0,0,1-.38-.38V15.579a.387.387,0,0,1,.38-.38h1.052a.387.387,0,0,1,.38.38v3.449A.387.387,0,0,1,19.232,19.408Z" fill="#e870b0"/>
  </g>
</svg>
