<svg xmlns="http://www.w3.org/2000/svg" width="25.565" height="28" viewBox="0 0 25.565 28">
  <path id="Path_73717" data-name="Path 73717" d="M5.435,4.652H4.217A1.217,1.217,0,0,0,3,5.87V19.261H5.435Zm21.913,0H26.13V19.261h2.435V5.87A1.217,1.217,0,0,0,27.348,4.652ZM3,22.913A1.217,1.217,0,0,0,4.217,24.13h23.13a1.217,1.217,0,0,0,1.217-1.217V20.478H3ZM15.783,21.7a.609.609,0,1,1-.609.609A.609.609,0,0,1,15.783,21.7Zm5.478,6.087H18.826V25.348H12.739v2.435H10.3A.609.609,0,1,0,10.3,29H21.261a.609.609,0,1,0,0-1.217ZM24.913,2.217A1.217,1.217,0,0,0,23.7,1H7.87A1.217,1.217,0,0,0,6.652,2.217V4.652H24.913ZM9.087,3.435A.609.609,0,1,1,9.7,2.826.609.609,0,0,1,9.087,3.435Zm2.435,0a.609.609,0,1,1,.609-.609A.609.609,0,0,1,11.522,3.435Zm2.435,0a.609.609,0,1,1,.609-.609A.609.609,0,0,1,13.957,3.435ZM24.913,5.87H6.652V19.261H24.913Zm-11.133,8.7a.609.609,0,0,1-.432,1.041c-.359,0-.274,0-2.867-2.611a.609.609,0,0,1,0-.861l0,0L12.916,9.7a.611.611,0,1,1,.864.864l-2.009,2ZM17,9.643,15.783,15.73a.621.621,0,0,1-1.217-.243L15.783,9.4A.621.621,0,0,1,17,9.643ZM21.1,13c-2.63,2.611-2.526,2.611-2.879,2.611a.609.609,0,0,1-.432-1.041l2.009-2-2.009-2A.611.611,0,0,1,18.65,9.7l2.435,2.435a.609.609,0,0,1,0,.861l0,0Z" transform="translate(-3 -1)" fill="#e870b0"/>
</svg>
