<svg xmlns="http://www.w3.org/2000/svg" xmlns:xlink="http://www.w3.org/1999/xlink" width="28" height="28" viewBox="0 0 28 28">
  <defs>
    <clipPath id="clip-path">
      <rect id="Rectangle_8843" data-name="Rectangle 8843" width="28" height="28" transform="translate(0 0.039)" fill="none"/>
    </clipPath>
  </defs>
  <g id="Group_6023" data-name="Group 6023" transform="translate(0 -0.268)">
    <g id="Group_6022" data-name="Group 6022" transform="translate(0 0.229)" clip-path="url(#clip-path)">
      <path id="Path_27639" data-name="Path 27639" d="M14.148.032a.47.47,0,0,0-.268.084L.211,9.54a.471.471,0,0,0-.119.657l1.169,1.67a.472.472,0,0,0,.655.119L14.147,3.549l12.232,8.437a.471.471,0,0,0,.653-.119L28.2,10.2a.471.471,0,0,0-.118-.657L14.416.116a.47.47,0,0,0-.268-.084Zm6.125,1.414a.471.471,0,0,0-.471.471v.769l5.655,3.9V1.917a.471.471,0,0,0-.471-.471ZM12.261,8.987A1.418,1.418,0,0,0,10.849,10.4v.474h.939V10.4a.46.46,0,0,1,.473-.469h3.771a.457.457,0,0,1,.469.469v.474h.943V10.4a1.419,1.419,0,0,0-1.413-1.412Zm2.828,7.069a.471.471,0,0,1,.469.469v1.546l6.242-1.56a.471.471,0,0,0,.358-.456V13.228a1.421,1.421,0,0,0-1.416-1.412H7.548a1.418,1.418,0,0,0-1.412,1.412v2.828a.472.472,0,0,0,.354.456l6.241,1.56V16.526a.474.474,0,0,1,.45-.469ZM3.78,11.845l-.943.65V24.537H3.78Zm20.734,0V24.537h.943V12.495ZM13.674,17v1.412a.471.471,0,1,0,.943,0V17Zm7.542.631L15.377,19.09a1.4,1.4,0,0,1-2.462,0L7.078,17.631v5.021A1.421,1.421,0,0,0,8.49,24.068H19.8a1.425,1.425,0,0,0,1.417-1.416ZM1.894,25.48a.471.471,0,0,0-.473.474v1.881a.471.471,0,0,0,.473.473H26.4a.471.471,0,0,0,.469-.473V25.954a.471.471,0,0,0-.469-.474Z" transform="translate(-0.007 -0.268)" fill="#40aae6"/>
      <path id="Path_27640" data-name="Path 27640" d="M13.872.086.2,9.51a.471.471,0,0,0-.119.657l1.169,1.67a.472.472,0,0,0,.655.119L14.14,3.519l12.232,8.437a.471.471,0,0,0,.653-.119l1.165-1.67a.471.471,0,0,0-.118-.657L14.408.086a.462.462,0,0,0-.536,0Zm6.394,1.33a.471.471,0,0,0-.471.471v.769l5.655,3.9V1.887a.471.471,0,0,0-.471-.471ZM12.254,8.957a1.418,1.418,0,0,0-1.412,1.412v.474h.939v-.474a.46.46,0,0,1,.473-.469h3.771a.457.457,0,0,1,.469.469v.474h.943v-.474a1.419,1.419,0,0,0-1.413-1.412Zm2.828,7.069a.471.471,0,0,1,.469.469v1.546l6.242-1.56a.471.471,0,0,0,.358-.456V13.2a1.421,1.421,0,0,0-1.416-1.412H7.541A1.418,1.418,0,0,0,6.129,13.2v2.828a.472.472,0,0,0,.354.456l6.241,1.56V16.5a.474.474,0,0,1,.45-.469ZM3.773,11.815l-.943.65V24.507h.943Zm20.734,0V24.507h.943V12.465Zm-10.84,5.154v1.412a.471.471,0,1,0,.943,0V16.969Zm7.542.631L15.37,19.06a1.4,1.4,0,0,1-2.462,0L7.071,17.6v5.021a1.421,1.421,0,0,0,1.412,1.416H19.792a1.425,1.425,0,0,0,1.417-1.416ZM1.887,25.45a.471.471,0,0,0-.473.474v1.881a.471.471,0,0,0,.473.473h24.5a.471.471,0,0,0,.469-.473V25.924a.471.471,0,0,0-.469-.474Z" transform="translate(0 -0.237)" fill="#40aae6"/>
    </g>
  </g>
</svg>
